# xmcd CD database file
#
# Track frame offsets:
#	150
#	30501
#	73141
#	105697
#	146390
#	191821
#	225627
#	248820
#	267632
#
# Disc length: 3820 seconds
#
# Revision: 0
# Processed by: cddbd v1.5.2PL0 Copyright (c) Steve Scherf et al.
# Submitted via: CDex 1.70beta2
#
DISCID=810eea09
DTITLE=Barbara Dennerlein - Best of Blues: Through the Years
DYEAR=2018
DGENRE=Jazz
TTITLE0=Organ Boogie
TTITLE1=Stormy Weather Blues
TTITLE2=Tribute to Charlie
TTITLE3=Rankett Blues
TTITLE4=Frog Dance
TTITLE5=Bebabaloo
TTITLE6=Black and White
TTITLE7=Funkish
TTITLE8=This Old Fairy-Tale
EXTD=YEAR: 2018
EXTT0=
EXTT1=
EXTT2=
EXTT3=
EXTT4=
EXTT5=
EXTT6=
EXTT7=
EXTT8=
PLAYORDER=
